<?xml version="1.0" encoding="UTF-8" standalone="no"?>
<!DOCTYPE svg PUBLIC "-//W3C//DTD SVG 1.1//EN" "http://www.w3.org/Graphics/SVG/1.1/DTD/svg11.dtd">
<svg width="100%" height="100%" viewBox="0 0 283 110" version="1.1" xmlns="http://www.w3.org/2000/svg" xmlns:xlink="http://www.w3.org/1999/xlink" xml:space="preserve" xmlns:serif="http://www.serif.com/" style="fill-rule:evenodd;clip-rule:evenodd;stroke-linejoin:round;stroke-miterlimit:2;">
    <g transform="matrix(0.045714,-0,-0,-0.045714,-2.456959,111.680629)">
        <g transform="matrix(21.875137,-0,-0,-22.317059,53.746314,2446.564404)">
            <path d="M106,32.75L106,82.25C106,95.91 94.686,107 80.75,107L28.25,107C14.314,107 3,95.91 3,82.25L3,32.75C3,19.09 14.314,8 28.25,8L80.75,8C94.686,8 106,19.09 106,32.75Z" style="fill:white;"/>
        </g>
        <path d="M1271,2443C777,2444 353,2441 329,2436C305,2431 267,2418 245,2406C223,2395 186,2369 162,2349C139,2329 106,2285 89,2251L58,2189L55,1263C52,352 53,337 74,280C86,249 114,201 137,175C163,145 206,114 250,92L320,58L2179,58L2240,89C2275,107 2323,143 2352,175C2383,209 2410,253 2422,286C2440,338 2441,396 2441,1255L2441,2168L2411,2234C2393,2273 2362,2317 2334,2342C2308,2366 2261,2398 2228,2413L2168,2441L1271,2443ZM692,2221C711,2218 736,2209 746,2199C757,2189 771,2166 777,2147C784,2125 785,2105 778,2087C769,2062 777,2050 884,1936C947,1867 1019,1798 1043,1782C1066,1766 1096,1750 1109,1747C1122,1744 1151,1747 1172,1754C1194,1761 1233,1789 1260,1815C1287,1842 1334,1901 1364,1947C1419,2028 1420,2030 1403,2059C1394,2074 1386,2102 1386,2121C1386,2139 1391,2163 1397,2174C1403,2185 1421,2201 1438,2210C1455,2219 1481,2226 1497,2226C1514,2226 1538,2213 1560,2190C1583,2168 1596,2144 1596,2127C1596,2111 1589,2085 1580,2068C1571,2051 1555,2033 1544,2027C1533,2021 1514,2016 1502,2016C1488,2016 1459,1989 1416,1935C1380,1890 1334,1827 1314,1796C1294,1764 1264,1700 1248,1654C1225,1589 1218,1551 1218,1486C1218,1419 1223,1391 1243,1348C1261,1310 1278,1290 1305,1278C1325,1268 1360,1260 1382,1260C1405,1260 1442,1271 1465,1284C1492,1299 1524,1333 1556,1381C1583,1421 1620,1492 1638,1538C1655,1584 1686,1677 1706,1745L1741,1867L1721,1909C1702,1947 1701,1954 1715,1987C1723,2007 1741,2031 1755,2041C1768,2050 1796,2058 1816,2058C1837,2057 1861,2052 1870,2045C1879,2038 1895,2019 1905,2003C1918,1983 1922,1964 1917,1939C1914,1920 1899,1893 1885,1880C1871,1867 1844,1853 1826,1849C1794,1843 1790,1837 1772,1774C1761,1737 1739,1659 1722,1602C1704,1545 1691,1481 1691,1459C1691,1437 1693,1412 1697,1402C1701,1393 1718,1377 1736,1368C1761,1355 1799,1351 1890,1350C1956,1350 2042,1354 2079,1358C2141,1365 2149,1369 2161,1396C2168,1413 2191,1434 2212,1444C2245,1459 2254,1460 2287,1447C2314,1437 2332,1421 2345,1393C2363,1357 2363,1349 2350,1314C2340,1287 2324,1270 2297,1257C2264,1240 2252,1239 2220,1250C2200,1256 2176,1274 2166,1288C2149,1314 2149,1314 2027,1307C1960,1304 1861,1294 1806,1285C1751,1277 1683,1262 1654,1253C1625,1244 1575,1223 1544,1207C1512,1191 1478,1169 1468,1158C1458,1147 1442,1120 1433,1098C1423,1074 1419,1046 1423,1028C1427,1012 1445,984 1465,967C1488,947 1521,932 1561,923C1608,914 1643,913 1712,923C1761,929 1855,951 1920,970C2031,1002 2041,1007 2058,1039C2068,1058 2087,1080 2101,1088C2115,1095 2137,1102 2150,1102C2164,1102 2188,1096 2204,1087C2220,1079 2239,1058 2247,1040C2254,1022 2257,993 2253,972C2249,951 2235,926 2219,914C2202,901 2176,893 2152,893C2125,893 2102,901 2082,918L2051,944L1905,904C1825,882 1728,851 1691,835C1653,818 1608,795 1591,784C1573,773 1541,746 1519,725C1497,705 1468,666 1455,641C1441,615 1425,568 1419,538C1412,507 1407,441 1407,390C1407,340 1414,271 1423,236C1432,202 1448,154 1459,129L1479,84L966,84L1003,135C1023,163 1056,223 1077,268C1097,313 1124,386 1137,430C1153,489 1159,540 1160,631C1160,749 1159,754 1129,798C1111,823 1076,857 1050,874C1024,890 972,913 935,925C897,936 819,951 761,957C697,964 604,966 523,961L389,953L363,918C345,895 323,881 300,876C278,872 253,875 235,884C219,891 197,913 186,932C172,955 168,975 173,997C177,1014 192,1040 207,1054C227,1075 245,1082 278,1082C312,1082 329,1075 350,1054C366,1039 378,1022 378,1016C378,1009 408,1008 459,1013C504,1017 562,1030 588,1041C613,1052 643,1069 654,1079C665,1089 684,1116 695,1139C712,1172 716,1194 711,1249C707,1308 695,1340 625,1483C553,1628 540,1649 518,1649C504,1649 479,1656 462,1664C445,1673 426,1689 420,1700C414,1712 410,1738 410,1759C410,1787 418,1805 440,1828C464,1851 481,1859 512,1859C541,1859 562,1851 581,1833C596,1819 611,1795 615,1780C619,1764 616,1734 609,1712C596,1673 598,1667 651,1552C681,1487 727,1396 754,1351C780,1305 828,1240 859,1206C891,1171 935,1134 957,1123C979,1112 1018,1103 1044,1103C1085,1103 1094,1107 1122,1141C1141,1164 1160,1203 1167,1236C1177,1280 1176,1308 1166,1366C1158,1410 1135,1475 1111,1525C1088,1571 1037,1650 999,1701C961,1752 884,1843 830,1904C733,2010 728,2014 685,2015C652,2016 632,2024 607,2046C581,2069 573,2085 573,2113C573,2133 582,2162 592,2178C602,2193 621,2211 633,2216C646,2221 672,2224 692,2221Z" style="fill:rgb(82,179,164);fill-rule:nonzero;"/>
        <path d="M677,2174C665,2174 650,2168 643,2161C636,2154 630,2136 630,2121C630,2106 636,2088 643,2081C650,2074 665,2069 677,2069C689,2069 705,2074 712,2081C719,2088 725,2106 725,2121C725,2136 719,2154 712,2161C705,2168 689,2174 677,2174Z" style="fill:rgb(82,179,164);fill-rule:nonzero;"/>
        <path d="M1491,2174C1487,2174 1472,2165 1459,2154C1441,2140 1437,2129 1442,2108C1446,2093 1458,2077 1470,2074C1482,2070 1500,2070 1512,2074C1524,2077 1536,2093 1540,2108C1545,2129 1541,2140 1523,2154C1510,2165 1495,2174 1491,2174Z" style="fill:rgb(82,179,164);fill-rule:nonzero;"/>
        <path d="M1818,2006C1802,2006 1784,2000 1777,1993C1770,1986 1764,1970 1764,1958C1764,1946 1770,1931 1777,1924C1784,1917 1803,1911 1819,1911C1840,1911 1852,1918 1860,1936C1868,1954 1868,1967 1859,1983C1851,1998 1837,2006 1818,2006Z" style="fill:rgb(82,179,164);fill-rule:nonzero;"/>
        <path d="M515,1806C504,1806 488,1799 479,1790C469,1780 462,1765 462,1754C462,1744 471,1728 481,1718C492,1709 508,1701 516,1701C525,1701 540,1710 550,1720C559,1731 567,1747 567,1756C567,1765 560,1780 551,1790C541,1799 525,1806 515,1806Z" style="fill:rgb(82,179,164);fill-rule:nonzero;"/>
        <path d="M2256,1397C2237,1397 2223,1389 2215,1375C2209,1363 2207,1344 2210,1333C2214,1322 2226,1307 2238,1301C2254,1293 2265,1294 2284,1307C2299,1316 2310,1334 2310,1347C2310,1361 2304,1377 2297,1384C2290,1391 2272,1397 2256,1397Z" style="fill:rgb(82,179,164);fill-rule:nonzero;"/>
        <path d="M2157,1050C2149,1050 2133,1041 2121,1029C2109,1017 2100,1002 2100,994C2100,986 2109,972 2119,962C2130,953 2148,945 2159,945C2170,945 2185,951 2192,958C2199,965 2205,981 2205,994C2205,1006 2198,1024 2189,1034C2179,1043 2165,1050 2157,1050Z" style="fill:rgb(82,179,164);fill-rule:nonzero;"/>
        <path d="M278,1029C266,1029 251,1023 244,1016C237,1009 231,992 231,977C231,961 237,944 244,937C251,930 266,924 278,924C290,924 306,930 313,937C320,944 326,961 326,977C326,992 320,1009 313,1016C306,1023 290,1029 278,1029Z" style="fill:rgb(82,179,164);fill-rule:nonzero;"/>
        <path d="M5310,1616C5267,1616 5211,1607 5179,1597C5149,1586 5105,1565 5082,1548C5058,1532 5026,1502 5009,1481C4993,1461 4970,1425 4959,1402C4947,1379 4932,1331 4924,1297C4917,1261 4914,1208 4918,1171C4922,1136 4938,1080 4955,1043C4972,1007 5005,957 5028,932C5051,907 5096,873 5127,857C5158,842 5214,824 5251,818C5300,810 5335,810 5381,819C5415,826 5461,841 5483,852C5505,863 5539,886 5559,904C5580,922 5597,940 5597,945C5597,949 5577,966 5554,982L5511,1012L5485,984C5471,968 5440,946 5416,933C5381,916 5359,912 5298,915C5257,918 5207,928 5186,938C5165,948 5133,971 5114,990C5096,1008 5070,1042 5058,1065C5043,1094 5035,1134 5032,1192C5028,1259 5032,1287 5050,1335C5062,1367 5089,1411 5109,1432C5129,1453 5164,1480 5187,1491C5209,1502 5253,1514 5283,1518C5322,1522 5354,1519 5386,1507C5411,1498 5448,1478 5468,1464L5503,1437L5539,1464C5559,1480 5576,1496 5576,1501C5576,1506 5559,1524 5540,1541C5520,1559 5477,1583 5445,1595C5404,1610 5363,1617 5310,1616Z" style="fill:white;fill-rule:nonzero;"/>
        <path d="M4275,1594C4260,1599 4237,1600 4224,1595C4212,1590 4196,1577 4190,1566C4184,1554 4179,1536 4179,1525C4179,1514 4190,1495 4203,1482C4217,1470 4236,1460 4246,1460C4256,1460 4274,1465 4285,1471C4297,1477 4310,1493 4316,1507C4322,1524 4321,1542 4314,1559C4307,1573 4290,1589 4275,1594Z" style="fill:white;fill-rule:nonzero;"/>
        <path d="M3131,1591L3029,1597L2864,1220C2773,1013 2699,841 2699,836C2699,832 2725,830 2757,832L2816,835L2890,1019L3074,1016L3259,1013L3296,921L3334,830L3394,830C3427,830 3455,831 3455,832C3455,834 3382,1005 3293,1213L3131,1591ZM3077,1452C3081,1447 3113,1372 3149,1284C3184,1196 3213,1122 3213,1119C3213,1116 3149,1113 3070,1113C2992,1113 2929,1117 2931,1122C2933,1126 2965,1204 3002,1295C3040,1386 3073,1456 3077,1452Z" style="fill:white;fill-rule:nonzero;"/>
        <path d="M5916,1594L5723,1598L5723,830L5828,830L5828,1162L5951,1168C6031,1172 6090,1180 6116,1191C6139,1201 6169,1219 6183,1232C6196,1244 6214,1268 6223,1285C6232,1302 6239,1344 6239,1381C6239,1428 6233,1461 6219,1488C6208,1510 6178,1542 6154,1559L6109,1591L5916,1594ZM5938,1509C5991,1506 6050,1496 6070,1488C6094,1478 6112,1461 6121,1440C6129,1420 6132,1388 6129,1362C6125,1335 6114,1311 6100,1300C6088,1290 6060,1277 6039,1271C6018,1265 5962,1260 5914,1260L5828,1260L5828,1379C5828,1444 5831,1502 5835,1506C5840,1511 5886,1512 5938,1509Z" style="fill:white;fill-rule:nonzero;"/>
        <path d="M3817,1354C3782,1354 3737,1347 3717,1338C3697,1329 3670,1312 3657,1300L3633,1277L3633,1311C3633,1344 3632,1344 3581,1344L3528,1344L3528,525L3633,525L3633,894L3662,871C3678,859 3707,842 3726,834C3746,826 3786,819 3816,819C3855,819 3887,827 3928,848C3962,865 3998,894 4018,921C4038,948 4056,989 4064,1024C4070,1056 4072,1102 4068,1127C4064,1151 4054,1187 4046,1208C4038,1228 4016,1260 3997,1280C3979,1299 3945,1324 3922,1335C3895,1347 3856,1354 3817,1354ZM3815,1265C3837,1262 3869,1253 3885,1244C3901,1236 3926,1211 3939,1189C3958,1159 3964,1135 3963,1087C3963,1045 3957,1013 3944,992C3934,975 3913,951 3897,940C3879,926 3849,918 3807,916C3757,913 3736,917 3709,934C3690,946 3665,971 3654,990C3639,1013 3633,1042 3633,1085C3633,1118 3640,1158 3648,1174C3656,1189 3674,1213 3688,1226C3703,1240 3728,1255 3745,1260C3761,1265 3793,1267 3815,1265Z" style="fill:white;fill-rule:nonzero;"/>
        <path d="M4623,1354C4590,1353 4550,1348 4536,1343C4522,1337 4497,1320 4481,1305C4465,1290 4447,1261 4441,1242C4434,1222 4432,1190 4436,1171C4440,1147 4456,1124 4480,1104C4504,1084 4545,1066 4590,1055C4630,1045 4674,1028 4688,1017C4703,1005 4715,987 4715,977C4715,966 4702,947 4687,935C4668,920 4644,914 4611,914C4577,914 4552,921 4524,941L4485,968L4446,939L4408,909L4445,875C4465,857 4502,836 4527,829C4552,822 4602,819 4638,822C4674,825 4718,836 4737,847C4755,857 4780,880 4792,896C4808,917 4814,941 4814,982C4814,1030 4810,1043 4784,1070C4767,1088 4731,1109 4705,1117C4678,1126 4642,1136 4623,1139C4605,1143 4577,1155 4563,1167C4548,1179 4536,1196 4536,1207C4536,1217 4546,1234 4557,1244C4571,1257 4594,1264 4624,1264C4654,1264 4681,1256 4701,1241L4732,1219L4765,1242C4783,1255 4798,1270 4798,1277C4798,1283 4790,1296 4780,1305C4769,1315 4744,1329 4722,1338C4701,1347 4656,1354 4623,1354Z" style="fill:white;fill-rule:nonzero;"/>
        <rect x="4200" y="830" width="95" height="514" style="fill:white;fill-rule:nonzero;"/>
    </g>
</svg>
